<svg width="395" height="129" viewBox="0 0 395 129" fill="none" xmlns="http://www.w3.org/2000/svg">
<path d="M0 64.5C0 29.1538 28.6538 0.5 64 0.5H331C366.346 0.5 395 29.1538 395 64.5C395 99.8462 366.346 128.5 331 128.5H64C28.6538 128.5 0 99.8462 0 64.5Z" fill="#D9D9D9"/>
<path d="M84.2317 96C83.3357 96 82.8877 95.68 82.8877 95.04C82.8877 94.336 83.5277 93.888 84.8077 93.696L86.7278 93.408C88.1358 93.216 89.0958 92.896 89.6078 92.448C90.1838 91.936 90.5998 91.008 90.8558 89.664L103.912 33.216C104.232 31.872 104.232 30.976 103.912 30.528C103.592 30.08 102.792 29.728 101.512 29.472L99.5918 29.088C98.7598 28.896 98.3438 28.544 98.3438 28.032C98.3438 27.264 98.9198 26.88 100.072 26.88H117.448C118.408 26.88 118.792 27.264 118.6 28.032C118.472 28.608 118.056 28.96 117.352 29.088L114.664 29.472C113.256 29.664 112.296 30.016 111.784 30.528C111.272 31.04 110.856 31.968 110.536 33.312L98.0558 87.072C97.5438 89.376 97.8638 91.04 99.0157 92.064C100.168 93.088 101.832 93.6 104.008 93.6C106.44 93.6 108.936 92.672 111.496 90.816C114.056 88.96 116.168 86.048 117.832 82.08L120.712 75.36C121.032 74.528 121.544 74.112 122.248 74.112C123.208 74.112 123.528 74.656 123.208 75.744L117.832 93.792C117.448 95.264 116.488 96 114.952 96H84.2317ZM140.878 96.864C136.91 96.864 133.774 95.232 131.47 91.968C129.166 88.64 128.014 84.16 128.014 78.528C128.014 74.368 128.686 70.368 130.03 66.528C131.374 62.688 133.134 59.264 135.31 56.256C137.55 53.248 140.014 50.88 142.702 49.152C145.454 47.36 148.206 46.464 150.958 46.464C154.926 46.464 158.062 48.096 160.366 51.36C162.67 54.624 163.822 59.104 163.822 64.8C163.822 68.96 163.15 72.96 161.806 76.8C160.462 80.64 158.67 84.064 156.43 87.072C154.254 90.08 151.79 92.48 149.038 94.272C146.35 96 143.63 96.864 140.878 96.864ZM140.686 94.56C142.734 94.56 144.718 93.568 146.638 91.584C148.622 89.6 150.414 86.976 152.014 83.712C153.614 80.448 154.894 76.832 155.854 72.864C156.814 68.832 157.294 64.8 157.294 60.768C157.294 52.768 155.214 48.768 151.054 48.768C149.07 48.768 147.086 49.76 145.102 51.744C143.118 53.664 141.326 56.256 139.726 59.52C138.19 62.784 136.942 66.432 135.982 70.464C135.022 74.432 134.542 78.432 134.542 82.464C134.542 90.528 136.59 94.56 140.686 94.56ZM174.022 116.736C168.966 116.736 165.126 115.808 162.502 113.952C159.878 112.096 158.566 109.888 158.566 107.328C158.566 105.088 159.462 102.88 161.254 100.704C162.982 98.592 166.214 96.16 170.95 93.408C171.654 93.024 172.038 92.608 172.102 92.16C172.23 91.648 171.942 91.168 171.238 90.72C169.446 89.568 168.358 88.224 167.974 86.688C167.654 85.152 168.07 84.064 169.222 83.424L176.518 79.2C177.158 78.88 177.478 78.496 177.478 78.048C177.542 77.536 177.222 77.088 176.518 76.704C174.79 75.68 173.478 74.24 172.582 72.384C171.75 70.464 171.334 68.384 171.334 66.144C171.334 62.688 172.166 59.488 173.83 56.544C175.558 53.536 177.83 51.104 180.646 49.248C183.526 47.392 186.726 46.464 190.246 46.464C191.718 46.464 192.966 46.656 193.99 47.04C194.758 47.296 195.334 47.04 195.718 46.272C196.806 43.904 198.182 42.048 199.846 40.704C201.574 39.296 203.366 38.592 205.222 38.592C206.566 38.592 207.59 38.944 208.294 39.648C209.062 40.352 209.446 41.312 209.446 42.528C209.446 43.744 209.094 44.736 208.39 45.504C207.686 46.272 206.79 46.656 205.702 46.656C204.87 46.656 204.23 46.496 203.782 46.176C203.398 45.856 203.046 45.536 202.726 45.216C202.406 44.896 201.894 44.736 201.19 44.736C199.782 44.736 198.662 45.536 197.83 47.136C197.574 47.712 197.51 48.256 197.638 48.768C197.766 49.216 198.022 49.696 198.406 50.208C200.07 52.384 200.902 55.136 200.902 58.464C200.902 61.472 200.23 64.352 198.886 67.104C197.606 69.792 195.814 72.096 193.51 74.016C191.27 75.872 188.678 77.12 185.734 77.76C184.582 78.016 183.526 78.336 182.566 78.72C181.67 79.04 180.518 79.648 179.11 80.544L175.27 82.848C174.31 83.424 174.054 84.16 174.502 85.056C174.95 85.888 176.198 86.688 178.246 87.456L186.502 90.528C190.086 91.808 192.55 93.376 193.894 95.232C195.302 97.088 196.006 99.264 196.006 101.76C196.006 104.832 194.982 107.488 192.934 109.728C190.95 111.968 188.294 113.696 184.966 114.912C181.638 116.128 177.99 116.736 174.022 116.736ZM177.766 67.872C177.766 70.816 178.182 72.96 179.014 74.304C179.91 75.584 181.158 76.224 182.758 76.224C184.806 76.224 186.694 75.296 188.422 73.44C190.214 71.52 191.654 69.088 192.742 66.144C193.83 63.136 194.374 60.032 194.374 56.832C194.374 53.632 193.958 51.456 193.126 50.304C192.294 49.088 191.046 48.48 189.382 48.48C187.398 48.48 185.51 49.44 183.718 51.36C181.926 53.216 180.486 55.616 179.398 58.56C178.31 61.504 177.766 64.608 177.766 67.872ZM175.078 114.336C177.574 114.336 179.91 113.92 182.086 113.088C184.262 112.256 186.022 111.072 187.366 109.536C188.774 108 189.478 106.176 189.478 104.064C189.478 101.952 188.934 100.192 187.846 98.784C186.822 97.44 184.774 96.192 181.702 95.04L179.878 94.368C178.726 93.92 177.574 93.76 176.422 93.888C175.27 94.016 174.182 94.336 173.158 94.848C169.702 96.768 167.366 98.56 166.15 100.224C164.934 101.888 164.326 103.712 164.326 105.696C164.326 108.064 165.19 110.08 166.918 111.744C168.646 113.472 171.366 114.336 175.078 114.336ZM239.522 37.92C238.306 37.92 237.282 37.504 236.45 36.672C235.682 35.776 235.298 34.72 235.298 33.504C235.298 31.776 235.81 30.4 236.834 29.376C237.922 28.352 239.138 27.84 240.482 27.84C241.762 27.84 242.818 28.256 243.65 29.088C244.546 29.856 244.994 30.88 244.994 32.16C244.994 33.952 244.45 35.36 243.362 36.384C242.274 37.408 240.994 37.92 239.522 37.92ZM231.65 96.96C229.538 96.96 228.034 96.192 227.138 94.656C226.242 93.056 226.21 90.464 227.042 86.88L234.146 56.448C234.466 55.04 234.498 53.952 234.242 53.184C234.05 52.352 233.474 51.936 232.514 51.936C231.362 51.936 230.082 52.8 228.674 54.528C227.33 56.192 225.794 59.392 224.066 64.128C223.81 64.96 223.362 65.376 222.722 65.376C221.762 65.376 221.506 64.8 221.954 63.648C223.362 59.232 224.834 55.776 226.37 53.28C227.97 50.784 229.57 49.024 231.17 48C232.77 46.976 234.242 46.464 235.586 46.464C237.826 46.464 239.394 47.264 240.29 48.864C241.186 50.4 241.218 52.96 240.386 56.544L233.282 86.976C232.962 88.384 232.898 89.504 233.09 90.336C233.346 91.104 233.954 91.488 234.914 91.488C236.066 91.488 237.314 90.656 238.658 88.992C240.066 87.264 241.634 84.032 243.362 79.296C243.618 78.464 244.066 78.048 244.706 78.048C245.666 78.048 245.922 78.624 245.474 79.776C244.13 84.128 242.626 87.584 240.962 90.144C239.362 92.64 237.762 94.4 236.162 95.424C234.562 96.448 233.058 96.96 231.65 96.96ZM252.682 94.752L261.802 56.448C262.122 55.04 262.154 53.952 261.898 53.184C261.706 52.352 261.13 51.936 260.17 51.936C259.018 51.936 257.738 52.8 256.33 54.528C254.986 56.192 253.45 59.392 251.722 64.128C251.466 64.96 251.018 65.376 250.378 65.376C249.418 65.376 249.162 64.8 249.61 63.648C251.018 59.232 252.49 55.776 254.026 53.28C255.626 50.784 257.226 49.024 258.826 48C260.426 46.976 261.898 46.464 263.242 46.464C265.354 46.464 266.858 47.264 267.754 48.864C268.65 50.4 268.682 52.96 267.85 56.544L265.45 66.912C265.386 67.36 265.482 67.616 265.738 67.68C265.994 67.744 266.218 67.584 266.41 67.2C268.906 62.016 271.306 57.92 273.61 54.912C275.914 51.84 278.09 49.664 280.138 48.384C282.186 47.104 284.042 46.464 285.706 46.464C288.074 46.464 289.802 47.424 290.89 49.344C291.978 51.264 291.978 54.208 290.89 58.176L283.594 86.016C283.146 87.808 283.114 89.152 283.498 90.048C283.882 90.944 284.586 91.392 285.61 91.392C286.89 91.392 288.138 90.56 289.354 88.896C290.634 87.168 291.946 83.936 293.29 79.2C293.482 78.496 293.898 78.144 294.538 78.144C295.05 78.144 295.338 78.336 295.402 78.72C295.53 79.104 295.53 79.552 295.402 80.064C294.186 84.416 292.874 87.84 291.466 90.336C290.058 92.768 288.618 94.464 287.146 95.424C285.738 96.384 284.298 96.864 282.826 96.864C280.522 96.864 278.794 95.904 277.642 93.984C276.49 92.064 276.426 89.088 277.45 85.056L284.842 57.216C285.546 54.72 285.642 52.992 285.13 52.032C284.682 51.072 284.01 50.592 283.114 50.592C281.706 50.592 280.106 51.488 278.314 53.28C276.522 55.008 274.698 57.408 272.842 60.48C270.986 63.488 269.162 66.912 267.37 70.752C265.578 74.592 263.946 78.592 262.474 82.752C261.066 86.912 259.914 90.976 259.018 94.944C258.826 95.648 258.378 96 257.674 96H253.738C252.842 96 252.49 95.584 252.682 94.752Z" fill="#FF9292"/>
</svg>
