<svg width="72" height="88" viewBox="0 0 72 88" fill="none" xmlns="http://www.w3.org/2000/svg">
<g filter="url(#filter0_d_3_49)">
<rect x="4" y="16" width="64" height="64" rx="3" fill="#FF9292"/>
<rect x="4.5" y="16.5" width="63" height="63" rx="2.5" stroke="#F49696"/>
</g>
<path d="M14.344 73.864C12.296 73.2667 10.8667 72.6693 10.056 72.072C9.288 71.4747 8.904 70.728 8.904 69.832C8.904 69.1493 9.096 68.1893 9.48 66.952C9.864 65.7147 10.4187 64.264 11.144 62.6C11.912 60.8933 12.808 59.016 13.832 56.968C14.8987 54.92 16.0933 52.7227 17.416 50.376C16.3067 50.3333 15.304 50.312 14.408 50.312C13.5547 50.2693 12.8507 50.248 12.296 50.248C12.552 49.608 13.2773 49.0533 14.472 48.584C15.6667 48.1147 17.2453 47.7093 19.208 47.368C20.872 44.5947 22.6427 41.9493 24.52 39.432C26.44 36.9147 28.36 34.6107 30.28 32.52C32.2 30.3867 34.12 28.5307 36.04 26.952C37.96 25.3307 39.7947 24.0507 41.544 23.112C41.5867 22.8133 41.608 22.5573 41.608 22.344C41.6507 22.1307 41.672 21.9813 41.672 21.896C42.2693 21.896 43.0587 22.0453 44.04 22.344C45.064 22.6427 46.0453 23.0053 46.984 23.432C47.9653 23.8587 48.8187 24.3067 49.544 24.776C50.312 25.2027 50.7387 25.5653 50.824 25.864C49.416 28.3387 48.0293 32.0507 46.664 37C45.2987 41.9067 44.168 47.7947 43.272 54.664C43.0587 56.3707 42.8667 58.312 42.696 60.488C42.568 62.664 42.504 65.096 42.504 67.784C42.504 68.7227 42.504 69.6827 42.504 70.664C42.504 71.6453 42.5467 72.6693 42.632 73.736C42.5467 73.7787 42.4613 73.8 42.376 73.8C42.2907 73.8 42.12 73.8 41.864 73.8C41.2667 73.8 40.5627 73.6933 39.752 73.48C38.984 73.3093 38.216 73.0747 37.448 72.776C36.7227 72.52 36.0827 72.2213 35.528 71.88C35.016 71.5387 34.696 71.24 34.568 70.984C34.5253 70.4293 34.504 69.8747 34.504 69.32C34.504 68.808 34.504 68.2533 34.504 67.656C34.504 65.0107 34.5893 62.3227 34.76 59.592C34.9733 56.8613 35.3147 54.0453 35.784 51.144C35.1867 51.1013 34.3973 51.0587 33.416 51.016C32.4347 50.9307 31.3253 50.8667 30.088 50.824C28.8933 50.7813 27.592 50.7387 26.184 50.696C24.8187 50.6107 23.4747 50.5467 22.152 50.504C21.128 52.424 20.168 54.344 19.272 56.264C18.376 58.1413 17.608 60.04 16.968 61.96C16.2427 64.008 15.6453 66.056 15.176 68.104C14.7493 70.152 14.472 72.072 14.344 73.864ZM39.048 35.4C39.2187 34.8027 39.4107 33.992 39.624 32.968C39.88 31.9013 40.1147 30.792 40.328 29.64C39.2613 30.024 38.0667 30.728 36.744 31.752C35.464 32.776 34.12 34.056 32.712 35.592C31.3467 37.0853 29.9387 38.792 28.488 40.712C27.08 42.5893 25.7147 44.5947 24.392 46.728C27.976 46.4293 32.0507 46.2373 36.616 46.152C36.9573 44.36 37.32 42.5893 37.704 40.84C38.1307 39.048 38.5787 37.2347 39.048 35.4Z" fill="black"/>
<line x1="54.5" y1="16" x2="54.5" y2="80" stroke="black"/>
<defs>
<filter id="filter0_d_3_49" x="0" y="16" width="72" height="72" filterUnits="userSpaceOnUse" color-interpolation-filters="sRGB">
<feFlood flood-opacity="0" result="BackgroundImageFix"/>
<feColorMatrix in="SourceAlpha" type="matrix" values="0 0 0 0 0 0 0 0 0 0 0 0 0 0 0 0 0 0 127 0" result="hardAlpha"/>
<feOffset dy="4"/>
<feGaussianBlur stdDeviation="2"/>
<feComposite in2="hardAlpha" operator="out"/>
<feColorMatrix type="matrix" values="0 0 0 0 0 0 0 0 0 0 0 0 0 0 0 0 0 0 0.25 0"/>
<feBlend mode="normal" in2="BackgroundImageFix" result="effect1_dropShadow_3_49"/>
<feBlend mode="normal" in="SourceGraphic" in2="effect1_dropShadow_3_49" result="shape"/>
</filter>
</defs>
</svg>